<svg width="18" height="21" viewBox="0 0 18 21" fill="none" xmlns="http://www.w3.org/2000/svg">
<path d="M0.5 11.1688V8.03125C0.5 8.03125 0.50625 0.53125 9 0.53125C17.4937 0.53125 17.5 8.03125 17.5 8.03125V10.4188M17.5 12.1562C17.5 12.1562 17.5312 18.0312 12 18.0312M12 18.0312C12 18.8597 11.3284 19.5312 10.5 19.5312H7.5C6.67157 19.5312 6 18.8597 6 18.0312C6 17.2028 6.67157 16.5312 7.5 16.5312H10.5C11.3284 16.5312 12 17.2028 12 18.0312ZM2 7.54377C2.82843 7.54377 3.5 8.21534 3.5 9.04377V12.0313C3.5 12.8597 2.82843 13.5313 2 13.5313C1.17157 13.5313 0.5 12.8597 0.5 12.0313V9.04377C0.5 8.21534 1.17157 7.54377 2 7.54377ZM16 7.54377C16.8284 7.54377 17.5 8.21534 17.5 9.04377V12.0313C17.5 12.8597 16.8284 13.5313 16 13.5313C15.1716 13.5313 14.5 12.8597 14.5 12.0313V9.04377C14.5 8.21534 15.1716 7.54377 16 7.54377Z" stroke="#0D0D0D" stroke-miterlimit="10"/>
</svg>
